<svg xmlns="http://www.w3.org/2000/svg" viewBox="0 0 512 512" id="chaiwala">
  <path fill="#57aafe" d="m440.01 330.498-57.01 54 .944 119.945a7 7 0 0 1-7 7.055H182.999a7 7 0 0 1-7-7v-230l-.86-2.92-24.29-81.96c.72.76 1.46 1.5 2.23 2.19a41.465 41.465 0 0 0 23.21 10.68l52.79 10.35a18.01 18.01 0 0 0 20.15-17.87v-28.43h68.89v30.84a21.175 21.175 0 0 0 17.62 20.87l33.78 5.78a84.715 84.715 0 0 1 70.49 83.48Z"></path>
  <path fill="#416bd0" d="M261.836 331.695v-91.08L279 239.499l19.095 1.118v91.079a6.356 6.356 0 0 1-6.36 6.352h-23.538a6.356 6.356 0 0 1-6.36-6.352zm28.997 81.226h-42.46a25.472 25.472 0 0 0-25.455 25.43v45.023H218.2a17.584 17.584 0 0 1-17.594-17.574v-9.764a17.584 17.584 0 0 0-17.593-17.574h-7.82v14.645h5.865a4.884 4.884 0 0 1 4.887 4.882v7.81a32.237 32.237 0 0 0 32.255 32.22h4.728a13.671 13.671 0 0 0 13.674 13.479h66.002a13.676 13.676 0 0 0 13.684-13.669v-59.477a25.472 25.472 0 0 0-25.455-25.43zm-42.46 7h42.46a18.464 18.464 0 0 1 18.455 18.43v18.466a12.991 12.991 0 0 0-6.048-1.49h-1.807v-8.641a5.302 5.302 0 0 0-5.302-5.302h-53.056a5.302 5.302 0 0 0-5.302 5.302v8.64h-1.807a12.992 12.992 0 0 0-6.048 1.491v-18.465a18.464 18.464 0 0 1 18.455-18.43z"></path>
  <path fill="#416bd0" d="M284.289 406.52v12.99a11.88 11.88 0 0 1-11.887 11.874h-30.22a11.652 11.652 0 0 1-11.658-11.646v-9.045a11.867 11.867 0 0 1 3.426-8.34l23.026-23.304a11.894 11.894 0 0 1 8.46-3.533h40.202v31.004l-21.349 8.179"></path>
  <path fill="#f9beac" d="M229.08 212.838a18.01 18.01 0 0 0 20.15-17.87v-28.43h68.89v30.84a21.175 21.175 0 0 0 17.62 20.87L279 246.498Z"></path>
  <path fill="#e58a7b" d="M287.481 217.846a42.25 42.25 0 0 0 26.434-9.288l5.366-4.305a21.1 21.1 0 0 1-1.162-6.875v-30.84h-68.89v28.43a17.942 17.942 0 0 1-.775 5.167l10.502 8.423a42.25 42.25 0 0 0 26.433 9.288Z"></path>
  <path fill="#57aafe" d="m134.39 124.238-3.71-28H94.62l-5.29 110.12a52.944 52.944 0 0 0 36.84 52.97l49.83 15.87.15.05-.15-.54-.86-3.13-22.06-79.77-2.23-2.19a41.392 41.392 0 0 1-10.85-22.93l-3.28-24.79Z"></path>
  <path fill="#416bd0" d="m92.457 141.252-3.128 65.106a52.944 52.944 0 0 0 36.84 52.97l49.83 15.87.15.05-.15-.54-.86-3.13a17.044 17.044 0 0 0-11.255-11.697l-23.715-7.553a52.944 52.944 0 0 1-36.84-52.97l2.792-58.106Z"></path>
  <path fill="#f9beac" d="m134.39 124.488-3.788-28.825-35.955.251-1.517 31.584Z"></path>
  <rect width="55.578" height="25.687" x="84.673" y="115.565" fill="#416bd0" rx="5.827"></rect>
  <path fill="#c9bfc8" d="M129.947 96.24h-34.97a7.416 7.416 0 0 1-7.405-6.949L82.415 6.872a3.178 3.178 0 0 1 3.174-3.374h53.746a3.178 3.178 0 0 1 3.174 3.374l-5.157 82.419a7.416 7.416 0 0 1-7.405 6.949Z"></path>
  <path fill="#aa9ea9" d="M122.922 34.418a25.865 25.865 0 0 0-25.868-23.604c-.796 0-1.602.037-2.397.11l-11.92 1.097 4.835 77.27a7.37 7.37 0 0 0 1.105 3.445c.116-.01.233-.005.349-.016l13.057-1.202a25.99 25.99 0 0 0 23.5-28.27Z"></path>
  <rect width="37.096" height="52.936" x="73.294" y="25.354" fill="#f9beac" rx="11.991" transform="rotate(-5.26 91.842 51.822)"></rect>
  <path fill="#57aafe" d="M268.836 324.695v-84.08L279 239.499l12.095 1.118v84.079a6.356 6.356 0 0 1-6.36 6.352h-9.538a6.356 6.356 0 0 1-6.36-6.352Z"></path>
  <path fill="#416bd0" d="m297.027 271.077-17.591-17.572 37.627-37.585a5.42 5.42 0 0 1 6.963-.589l14.068 3.238 2.569 6.237a5.71 5.71 0 0 1-.966 5.914l-34.744 40.073a5.42 5.42 0 0 1-7.926.284Z"></path>
  <path fill="#416bd0" d="m291.094 241.86-12.095-2.362.437 14.007 11.658 11.645v-23.29zM261.843 271.077l17.591-17.572-37.627-37.585a5.42 5.42 0 0 0-6.962-.589l-13.107-4.72-4.688 14.963a6 6 0 0 0 1.45 4.37l35.417 40.849a5.42 5.42 0 0 0 7.926.284Z"></path>
  <path fill="#416bd0" d="m268.836 264.091 10.598-10.586.002-14-10.6 3.414v21.172z"></path>
  <path fill="#57aafe" d="m297.027 257.077-17.591-17.572 37.627-37.585a5.422 5.422 0 0 1 6.963-.588l13.106 9.28a5.407 5.407 0 0 1 .962 7.957l-33.14 38.224a5.421 5.421 0 0 1-7.927.284zm-35.184 0 17.591-17.572-37.627-37.585a5.422 5.422 0 0 0-6.963-.588l-13.106 9.28a5.407 5.407 0 0 0-.962 7.957l33.141 38.224a5.421 5.421 0 0 0 7.926.284z"></path>
  <path fill="#f9beac" d="m325.549 179.613-18.634 14.945a42.25 42.25 0 0 1-26.434 9.288h-2.092a42.25 42.25 0 0 1-26.433-9.288l-18.634-14.945a49.738 49.738 0 0 1-18.627-38.8V60.85h129.48v79.962a49.738 49.738 0 0 1-18.626 38.8Z"></path>
  <path fill="#e58a7b" d="M214.695 89.419a36.63 36.63 0 0 0 9.713 1.312h110.055a36.63 36.63 0 0 0 9.712-1.312V67.851h-129.48Z"></path>
  <rect width="183.288" height="73.233" x="187.791" y="3.498" fill="#ff7b4f" rx="36.617"></rect>
  <path fill="#e58a7b" d="M350.118 128.944h-5.943V88.713h9.958a9.335 9.335 0 0 1 9.185 11.038l-4.015 21.567a9.34 9.34 0 0 1-9.185 7.626zm-141.366 0h5.943V88.713h-9.958a9.335 9.335 0 0 0-9.185 11.038l4.015 21.567a9.34 9.34 0 0 0 9.185 7.626z"></path>
  <path fill="#fdc857" d="M254.36 39.603a188.92 188.92 0 0 1-46.128-32.329 36.78 36.78 0 0 0-11.794 9.23 204.947 204.947 0 0 0 45.13 33.171zm44.184-11.128a193.4 193.4 0 0 1-30.595-24.977h-20.294c3.06 3.493 6.354 7.04 9.913 10.595A209.748 209.748 0 0 0 283.01 35.78z"></path>
  <path fill="#fdc857" d="M187.888 42.647a36.357 36.357 0 0 0 4.517 15.25c4.944.353 10.132.557 15.534.557a203.116 203.116 0 0 0 79.882-16.043 201.506 201.506 0 0 0 57.615-37.229 36.673 36.673 0 0 0-11.014-1.684h-9.837a186.146 186.146 0 0 1-42.583 25.278c-35.049 14.924-68.66 16.38-94.114 13.87zm144.981-1.683c-28.506 21.684-58.703 31.508-83.236 35.767h51.355a199 199 0 0 0 40.87-23.975 200.473 200.473 0 0 0 27.119-24.871 36.598 36.598 0 0 0-8.154-13.16 185.83 185.83 0 0 1-27.954 26.239z"></path>
  <path fill="#e58a7b" d="M290.118 128.183v6.553a10.683 10.683 0 0 1-10.683 10.683 10.683 10.683 0 0 1-10.682-10.683v-6.553a2 2 0 0 1 2-2h17.365a2 2 0 0 1 2 2Z"></path>
  <path fill="#e5e1e5" d="M186.606 456.005v-9.763a17.584 17.584 0 0 0-17.593-17.574h-7.82v14.645h5.865a4.884 4.884 0 0 1 4.887 4.882v7.81a32.237 32.237 0 0 0 32.255 32.22h7.419v-14.646h-7.42a17.584 17.584 0 0 1-17.593-17.574zm42.469-24.416h53.056a5.302 5.302 0 0 1 5.302 5.302v9.114h-63.66v-9.114a5.302 5.302 0 0 1 5.302-5.302z"></path>
  <path fill="#f9f7f8" d="M288.604 501.703h-66.002a13.676 13.676 0 0 1-13.684-13.668v-29.47a13.04 13.04 0 0 1 13.048-13.033h67.274a13.04 13.04 0 0 1 13.048 13.034v29.469a13.676 13.676 0 0 1-13.684 13.668Z"></path>
  <path fill="#416bd0" d="M383.632 329.867a10.587 10.587 0 0 1-6.704 9.846l-93.53 36.912 21.71 28.283a14.932 14.932 0 0 0 14.663 5.572l63.337-12.17-.109-13.812 57.009-53.999v-14.235l-56.37 1.84Z"></path>
  <path fill="#416bd0" d="M440.008 318.1a52.95 52.95 0 0 1-42.984 51.981l-86.304 16.583-18.476-32.36 75.36-35.726a18.12 18.12 0 0 0 10.28-14.697l.014-.15a2.198 2.198 0 0 1 3.676-1.42q1.001.916 2.066 1.799c18.947 15.698 43.59 15.301 56.368 13.99Z"></path>
  <path fill="#57aafe" d="M440.008 302.264v27.39a52.95 52.95 0 0 1-42.984 51.982l-86.304 16.583-27.322-35.594 93.53-36.912a10.587 10.587 0 0 0 6.704-9.846l.005-11.763Z"></path>
  <path fill="#f9beac" d="M284.289 392.52v12.99a11.88 11.88 0 0 1-11.887 11.874h-30.22a11.652 11.652 0 0 1-11.658-11.646v-9.045a11.867 11.867 0 0 1 3.426-8.34l23.026-23.304a11.894 11.894 0 0 1 8.46-3.533h40.202v31.004l-21.349 8.179"></path>
  <rect width="53.091" height="24.587" x="283.483" y="362.03" fill="#416bd0" rx="5.572" transform="rotate(-106.998 310.028 374.324)"></rect>
  <path fill="#24242b" d="M279.69 279.011a3.705 3.705 0 1 0-3.71-3.705 3.708 3.708 0 0 0 3.71 3.705Zm163.56 21.945a87.99 87.99 0 0 0-73.14-80.376l-27.242-4.664a8.863 8.863 0 0 0-3.713-8.16l-13.105-9.278a8.906 8.906 0 0 0-4.43-1.615v-9.605l6.12-4.908a52.996 52.996 0 0 0 19.94-41.53v-8.374h2.44a12.843 12.843 0 0 0 12.625-10.486l4.015-21.566a12.835 12.835 0 0 0-12.626-15.179h-6.454v-7.23A40.112 40.112 0 0 0 334.463 0H224.41a40.031 40.031 0 0 0-30.465 14.06l-.02.016c-.02.02-.033.046-.053.067a39.93 39.93 0 0 0-9.579 25.974c0 .971.047 1.931.115 2.886l.002.018a39.819 39.819 0 0 0 4.916 16.521c.036.068.073.132.113.197a40.32 40.32 0 0 0 21.762 18.25v7.226h-6.462a12.835 12.835 0 0 0-12.626 15.179l4.015 21.566a12.843 12.843 0 0 0 12.626 10.486h2.447v8.374a53.017 53.017 0 0 0 19.93 41.531l14.6 11.701v.918a14.474 14.474 0 0 1-.9 5.024l-.548-.548a8.901 8.901 0 0 0-11.46-.968l-12.748 9.026-43.111-8.448a3.503 3.503 0 0 0-.258-.041 38.04 38.04 0 0 1-33.235-32.784l-3.123-23.604a9.312 9.312 0 0 0 3.405-7.2v-14.033a9.342 9.342 0 0 0-7.419-9.129l-1.795-13.55a10.909 10.909 0 0 0 6.305-9.206l5.16-82.427A6.68 6.68 0 0 0 139.34 0H85.59a6.675 6.675 0 0 0-6.663 7.09l1.002 15.98a15.467 15.467 0 0 0-11.371 16.364l2.66 28.83A15.516 15.516 0 0 0 83.612 82.03l.465 7.484a10.948 10.948 0 0 0 6.907 9.464l-.63 13.098a9.334 9.334 0 0 0-9.18 9.319v14.033a9.337 9.337 0 0 0 7.621 9.163l-2.961 61.602a56.505 56.505 0 0 0 39.273 56.473l47.543 15.143v147.698a21.097 21.097 0 0 0-3.64-.336h-7.82a3.5 3.5 0 0 0-3.5 3.5v14.65a3.5 3.5 0 0 0 3.5 3.5h5.87a1.387 1.387 0 0 1 1.39 1.38v7.81a35.47 35.47 0 0 0 4.2 16.775V508.5a3.5 3.5 0 0 0 7 0v-26.561a35.628 35.628 0 0 0 24.55 9.791h1.63a17.203 17.203 0 0 0 16.773 13.476h66.001a17.196 17.196 0 0 0 17.185-17.17v-29.452l.001-.014v-30.01a25.37 25.37 0 0 0-18-24.3v-1.152l13-4.979.266.868a9.07 9.07 0 0 0 11.322 6.024l12.859-3.922a9.004 9.004 0 0 0 4.388-2.948l50.515-9.704V508.5a3.5 3.5 0 0 0 7 0V387.102l10.541-2.025a56.533 56.533 0 0 0 45.819-54.98c.001-.033.01-.064.01-.097v-27.73a3.48 3.48 0 0 0-.26-1.314ZM211.2 125.446h-2.447a5.84 5.84 0 0 1-5.744-4.767l-4.015-21.566a5.835 5.835 0 0 1 5.744-6.898h6.462Zm110.805 78.744 13.105 9.28a1.908 1.908 0 0 1 .34 2.808l-33.14 38.224a1.921 1.921 0 0 1-2.808.101l-15.112-15.096 35.147-35.108a1.919 1.919 0 0 1 2.468-.209Zm-7.302-4.847c-.037.036-.077.067-.113.103l-35.154 35.115-29.333-29.3a21.168 21.168 0 0 0 2.203-6.09 45.91 45.91 0 0 0 26.084 8.179h2.09a45.946 45.946 0 0 0 28.63-10.06l5.51-4.419v4.509c0 .658.031 1.313.083 1.963Zm-27.113 53.255V324.7a2.853 2.853 0 0 1-2.85 2.85h-9.54a2.858 2.858 0 0 1-2.86-2.85v-73.158l7.096-7.089Zm66.544-160.383a5.835 5.835 0 0 1 5.744 6.898l-4.015 21.566a5.84 5.84 0 0 1-5.744 4.767h-2.439v-33.23Zm13.446-52.098a33.154 33.154 0 0 1-33.117 33.116h-18.226a202.018 202.018 0 0 0 27.742-17.689 204.666 204.666 0 0 0 23.19-20.625 33.214 33.214 0 0 1 .411 5.198Zm-2.662-13.001a197.697 197.697 0 0 1-25.178 22.857 196.128 196.128 0 0 1-39.51 23.26h-21.813a189.138 189.138 0 0 0 56.572-29.481 189.87 189.87 0 0 0 25.79-23.708 33.13 33.13 0 0 1 4.139 7.072ZM313.994 7a183.228 183.228 0 0 1-21.516 12.99A190.83 190.83 0 0 1 276.678 7ZM266.52 7a200.444 200.444 0 0 0 18.881 16.432 182.552 182.552 0 0 1-4.77 2.126c-1.136.483-2.282.934-3.426 1.394a211.767 211.767 0 0 1-17.161-15.327A208.318 208.318 0 0 1 255.566 7ZM224.41 7h21.681c2.99 3.366 5.949 6.52 9.01 9.58 4.68 4.663 9.55 9.1 14.53 13.246q-8.318 2.923-16.87 5.019a185.172 185.172 0 0 1-38.062-26.39A33.005 33.005 0 0 1 224.408 7Zm-16.727 4.552a193.837 193.837 0 0 0 34.585 25.536q-5.97 1.096-12.036 1.807a203.225 203.225 0 0 1-28.856-22.54 33.308 33.308 0 0 1 6.307-4.803Zm-10.804 10.183a211.76 211.76 0 0 0 22.235 18.108 198.86 198.86 0 0 1-27.803-.419 32.915 32.915 0 0 1 5.568-17.689Zm-2.28 32.795a32.854 32.854 0 0 1-2.68-8.02q8.212.642 16.3.65a190.407 190.407 0 0 0 75.156-15.162 189.651 189.651 0 0 0 10.214-4.732 3.39 3.39 0 0 0 .229-.11A190.254 190.254 0 0 0 325.768 7h8.695a33.35 33.35 0 0 1 3.442.18 197.99 197.99 0 0 1-51.455 32.013 199.226 199.226 0 0 1-78.51 15.763c-4.4 0-8.88-.149-13.342-.426Zm4.798 7.254c2.863.111 5.72.172 8.544.172a206.18 206.18 0 0 0 81.252-16.323A205.212 205.212 0 0 0 346.24 9.171a33.14 33.14 0 0 1 9.708 5.774A182.907 182.907 0 0 1 330.75 38.18c-23.572 17.93-50.972 29.72-81.44 35.052H224.41a33.042 33.042 0 0 1-25.013-11.449Zm36.115 115.107a46.048 46.048 0 0 1-17.31-36.071V79.75a40.242 40.242 0 0 0 6.208.482H300.976l.014.001h33.473a40.24 40.24 0 0 0 6.217-.484v8.927c0 .013-.004.025-.004.038s.004.026.004.04v40.152c0 .013-.004.026-.004.039s.004.025.004.039v11.835a46.03 46.03 0 0 1-17.32 36.07l-18.628 14.939a38.922 38.922 0 0 1-24.252 8.521h-2.09a38.87 38.87 0 0 1-24.241-8.52ZM222.97 214.8a1.891 1.891 0 0 1 .793-1.33l13.105-9.279a1.917 1.917 0 0 1 2.468.208l35.147 35.11-8.111 8.102-.01.01-6.99 6.983a1.946 1.946 0 0 1-1.427.56 1.905 1.905 0 0 1-1.381-.66l-33.142-38.225a1.89 1.89 0 0 1-.452-1.479ZM78.189 67.621l-2.66-28.83a8.491 8.491 0 0 1 7.676-9.236l13.058-1.202q.395-.037.784-.037a8.504 8.504 0 0 1 8.45 7.712l2.66 28.83a8.49 8.49 0 0 1-7.677 9.236l-13.058 1.202a8.5 8.5 0 0 1-9.234-7.675Zm12.437 14.41 10.496-.967a15.491 15.491 0 0 0 14.005-16.85l-2.66-28.83a15.52 15.52 0 0 0-16.846-14.002l-8.733.804L85.935 7h53.06l-5.139 82.075a3.915 3.915 0 0 1-3.906 3.665H94.98a3.931 3.931 0 0 1-3.917-3.667Zm38.62 30.036H97.363l.593-12.327h29.657Zm-41.072 23.36v-14.033a2.33 2.33 0 0 1 2.326-2.327h3.086c.035.001.071.003.107.003.008 0 .016-.003.025-.003h39.486c.01 0 .021.003.032.003l.044-.003h1.145a2.33 2.33 0 0 1 2.327 2.327v14.033a2.33 2.33 0 0 1-2.327 2.327H90.5a2.33 2.33 0 0 1-2.326-2.327ZM205.419 484.73H204.2a28.767 28.767 0 0 1-28.75-28.72v-7.81a8.395 8.395 0 0 0-8.39-8.38h-2.37v-7.65h4.32a14.101 14.101 0 0 1 14.1 14.07v9.77a21.104 21.104 0 0 0 21.09 21.07h1.219Zm93.37 3.307a10.188 10.188 0 0 1-10.184 10.169h-66.002a10.183 10.183 0 0 1-10.174-9.967l.001-.009c0-.01-.003-.019-.003-.028 0-.056-.008-.11-.008-.165V458.549a9.551 9.551 0 0 1 9.548-9.515h67.273a9.552 9.552 0 0 1 9.549 9.534Zm-71.519-46.003v-5.144a1.807 1.807 0 0 1 1.81-1.8h53.05a1.802 1.802 0 0 1 1.8 1.8v5.144Zm71.52-13.474v16.529a16.444 16.444 0 0 0-7.86-2.97v-5.229a8.81 8.81 0 0 0-8.8-8.8h-53.05a8.815 8.815 0 0 0-8.81 8.8v5.23a16.444 16.444 0 0 0-7.85 2.967V428.56a18.498 18.498 0 0 1 15.35-18.138 15.18 15.18 0 0 0 14.41 10.468h30.22a15.406 15.406 0 0 0 14.27-9.646 18.395 18.395 0 0 1 12.12 17.316Zm-11-32.948v-3.092a3.5 3.5 0 0 0-7 0v12.99a8.395 8.395 0 0 1-8.39 8.38h-30.22a8.164 8.164 0 0 1-8.16-8.15v-9.04a8.369 8.369 0 0 1 2.42-5.89l23.031-23.302a8.434 8.434 0 0 1 5.969-2.488h25.23l8.07 26.4Zm36.629-2.216a2.059 2.059 0 0 1-1.224 1.008l-12.859 3.922a2.078 2.078 0 0 1-2.586-1.376l-12.263-40.115a2.072 2.072 0 0 1 1.377-2.587l12.86-3.922a2.07 2.07 0 0 1 2.584 1.376l12.263 40.114a2.057 2.057 0 0 1-.152 1.58Zm112.09-63.736a49.527 49.527 0 0 1-40.15 48.543l-13.411 2.577-.024.004-51.434 9.882a9.24 9.24 0 0 0-.224-.896l-11.53-37.718 58.483-23.078a14.021 14.021 0 0 0 8.91-13.101l.011-11.76a3.5 3.5 0 0 0-3.497-3.503h-.003a3.5 3.5 0 0 0-3.5 3.497l-.01 11.763a7.15 7.15 0 0 1-4.485 6.594l-59.045 23.3a9.072 9.072 0 0 0-8.92-2.134l-12.858 3.923a9.072 9.072 0 0 0-6.247 10.467H265.44a15.476 15.476 0 0 0-10.95 4.57l-23.037 23.307a15.336 15.336 0 0 0-4.433 10.803v6.735a25.542 25.542 0 0 0-21.6 25.125v29.989l-.001.019v11.512H204.2a14.096 14.096 0 0 1-14.09-14.07v-9.77a21.057 21.057 0 0 0-10.46-18.165V262.29a3.5 3.5 0 0 0-7 0v8.172l-45.419-14.467a49.497 49.497 0 0 1-34.405-49.467l2.97-61.774h37.771l2.963 22.395a45.035 45.035 0 0 0 39.213 38.8l40.296 7.897c-.005.038-.015.075-.02.113a8.928 8.928 0 0 0 2.113 6.905l33.141 38.224a8.949 8.949 0 0 0 6.42 3.07q.159.006.317.006a8.953 8.953 0 0 0 6.307-2.609l1.023-1.021V324.7a9.866 9.866 0 0 0 9.86 9.85h9.54a9.86 9.86 0 0 0 9.85-9.85v-65.113a8.949 8.949 0 0 0 6.272 2.577q.158 0 .316-.006a8.949 8.949 0 0 0 6.42-3.07l31.79-36.666 29.542 5.058a81.03 81.03 0 0 1 67.58 80.03Zm-156.82-18.887a3.705 3.705 0 1 0-3.71-3.706 3.708 3.708 0 0 0 3.71 3.706Zm-23.077-209.681a3.5 3.5 0 0 0 2.654-6.478 31.993 31.993 0 0 0-24.314 0 3.5 3.5 0 1 0 2.655 6.477 24.999 24.999 0 0 1 19.005 0Zm-13.003 6.277v6.883a3.5 3.5 0 0 0 7 0v-6.883a3.5 3.5 0 0 0-7 0Zm59.31 51.2a3.95 3.95 0 0 1 2.104.605l5.329 3.386a5.618 5.618 0 0 0 8.618-4.75v-10.87a5.607 5.607 0 0 0-2.606-4.747l-7.598-4.814a10.949 10.949 0 0 0-5.846-1.69h-9.349c.02-.311.048-.622.048-.939v-8.565a3.5 3.5 0 0 0-7 0v8.565a7.183 7.183 0 0 1-14.366 0v-8.565a3.5 3.5 0 0 0-7 0v8.565c0 .317.027.628.048.94h-9.18a10.926 10.926 0 0 0-5.532 1.5l-8.965 5.259a5.638 5.638 0 0 0-2.784 4.85v10.971a5.619 5.619 0 0 0 8.458 4.84l6.835-4.003a3.927 3.927 0 0 1 1.987-.537Zm-52.328-5.5-4.751 2.783v-7.761l8.293-4.863a3.927 3.927 0 0 1 1.987-.538h11.576a14.176 14.176 0 0 0 23.48 0h11.744a3.952 3.952 0 0 1 2.106.606l6.944 4.4v7.599l-3.204-2.036a10.947 10.947 0 0 0-5.846-1.69h-46.8a10.922 10.922 0 0 0-5.529 1.5Zm38.349 13.927a25.2 25.2 0 0 1-10.138 1.869 24.948 24.948 0 0 1-8.868-1.868 3.5 3.5 0 1 0-2.655 6.477 31.93 31.93 0 0 0 11.346 2.389c.275.007.548.01.821.01a31.896 31.896 0 0 0 12.145-2.398 3.5 3.5 0 0 0-2.651-6.479Zm11.994-65.642a3.489 3.489 0 0 0 1.326-.263 24.96 24.96 0 0 1 8.869-1.868 25.238 25.238 0 0 1 10.137 1.869 3.5 3.5 0 0 0 2.653-6.478 31.994 31.994 0 0 0-24.314 0 3.5 3.5 0 0 0 1.329 6.74Zm7.329 6.015v6.883a3.5 3.5 0 0 0 7 0v-6.883a3.5 3.5 0 0 0-7 0Z"></path>
</svg>
